<svg fill="currentColor" xmlns="http://www.w3.org/2000/svg" viewBox="0 0 51 48" id="icon-definition"><path d="M13 37h33a9 9 0 0 1-9 9H13v-9Z"/><path d="M22.5 1.5h-21v39c0 3.315 2.685 6 6 6m0 0c3.315 0 6-2.685 6-6v-3h33V39c0 4.143-3.357 7.5-7.5 7.5H7.5Zm3-36H25m-14.5 9h12m-12 9h16m13-26.719V25.22m5.031-19.532C41.656 4.112 33.75 3.405 33.75 8.813c0 5.508 11.5 3.133 11.5 9.376 0 5.292-8.217 5-11.5 3.125" stroke="currentColor" stroke-width="3" stroke-linecap="square"/><path d="M40 37v-4.5" stroke="currentColor" stroke-width="3"/></svg>